<svg width="16" height="16" viewBox="0 0 16 16" fill="none" xmlns="http://www.w3.org/2000/svg">
<path d="M5 8.00002L4.29289 8.70713C4.10536 8.51959 4 8.26524 4 8.00002C4 7.7348 4.10536 7.48045 4.29289 7.29291L5 8.00002ZM9.29289 2.29291C9.68342 1.90239 10.3166 1.90239 10.7071 2.29291C11.0976 2.68344 11.0976 3.3166 10.7071 3.70713L9.29289 2.29291ZM10.7071 12.2929C11.0976 12.6834 11.0976 13.3166 10.7071 13.7071C10.3166 14.0976 9.68342 14.0976 9.29289 13.7071L10.7071 12.2929ZM4.29289 7.29291L9.29289 2.29291L10.7071 3.70713L5.70711 8.70713L4.29289 7.29291ZM5.70711 7.29291L10.7071 12.2929L9.29289 13.7071L4.29289 8.70713L5.70711 7.29291Z" fill="#CED1D3"/>
</svg>
