<svg width="16" height="16" viewBox="0 0 16 16" fill="none" xmlns="http://www.w3.org/2000/svg">
<path d="M11 8.00002L11.7071 8.70713C11.8946 8.51959 12 8.26524 12 8.00002C12 7.7348 11.8946 7.48045 11.7071 7.29291L11 8.00002ZM6.70711 2.29291C6.31658 1.90239 5.68342 1.90239 5.29289 2.29291C4.90237 2.68344 4.90237 3.3166 5.29289 3.70713L6.70711 2.29291ZM5.29289 12.2929C4.90237 12.6834 4.90237 13.3166 5.29289 13.7071C5.68342 14.0976 6.31658 14.0976 6.70711 13.7071L5.29289 12.2929ZM11.7071 7.29291L6.70711 2.29291L5.29289 3.70713L10.2929 8.70713L11.7071 7.29291ZM10.2929 7.29291L5.29289 12.2929L6.70711 13.7071L11.7071 8.70713L10.2929 7.29291Z" fill="#CED1D3"/>
</svg>
