<svg width="24" height="24" viewBox="0 0 24 24" fill="none" xmlns="http://www.w3.org/2000/svg">
<path d="M19.0026 16.9975C17.3525 16.9975 16.0101 18.34 16.0101 19.99C16.0101 21.6401 17.3526 22.9826 19.0026 22.9826C20.6527 22.9826 21.9952 21.6401 21.9952 19.99C21.9952 18.34 20.6527 16.9975 19.0026 16.9975ZM19.0026 21.1871C18.3425 21.1871 17.8056 20.6502 17.8056 19.99C17.8056 19.3299 18.3425 18.793 19.0026 18.793C19.6628 18.793 20.1997 19.3299 20.1997 19.99C20.1997 20.6502 19.6628 21.1871 19.0026 21.1871Z" fill="white"/>
<path d="M23.8092 5.43167C23.6392 5.21412 23.3786 5.08723 23.1024 5.08723H5.54159L4.73361 1.70659C4.63695 1.30261 4.27573 1.01743 3.86037 1.01743H0.897755C0.401909 1.01738 0 1.41929 0 1.91513C0 2.41098 0.401909 2.81289 0.897755 2.81289H3.15175L6.06946 15.0212C6.16611 15.4255 6.52733 15.7104 6.9427 15.7104H20.9179C21.3305 15.7104 21.6902 15.4291 21.7893 15.0287L23.9738 6.2007C24.0399 5.93262 23.9792 5.64921 23.8092 5.43167ZM20.2155 13.9149H7.65131L5.97069 6.88273H21.9553L20.2155 13.9149Z" fill="white"/>
<path d="M8.13973 16.9975C6.48963 16.9975 5.14722 18.34 5.14722 19.99C5.14722 21.6401 6.48968 22.9826 8.13973 22.9826C9.78979 22.9826 11.1323 21.6401 11.1323 19.99C11.1323 18.34 9.78979 16.9975 8.13973 16.9975ZM8.13973 21.1871C7.47959 21.1871 6.94273 20.6502 6.94273 19.99C6.94273 19.3299 7.47959 18.793 8.13973 18.793C8.79988 18.793 9.33674 19.3299 9.33674 19.99C9.33674 20.6502 8.79988 21.1871 8.13973 21.1871Z" fill="white"/>
</svg>
