<svg width="16" height="16" viewBox="0 0 16 16" fill="none" xmlns="http://www.w3.org/2000/svg">
<path d="M7.99998 11L7.29287 11.7071C7.48041 11.8946 7.73476 12 7.99998 12C8.2652 12 8.51955 11.8946 8.70709 11.7071L7.99998 11ZM13.7071 6.70711C14.0976 6.31658 14.0976 5.68342 13.7071 5.29289C13.3166 4.90237 12.6834 4.90237 12.2929 5.29289L13.7071 6.70711ZM3.70711 5.29289C3.31658 4.90237 2.68342 4.90237 2.29289 5.29289C1.90237 5.68342 1.90237 6.31658 2.29289 6.70711L3.70711 5.29289ZM8.70709 11.7071L13.7071 6.70711L12.2929 5.29289L7.29287 10.2929L8.70709 11.7071ZM8.70709 10.2929L3.70711 5.29289L2.29289 6.70711L7.29287 11.7071L8.70709 10.2929Z" fill="white"/>
</svg>
