<svg width="24" height="24" viewBox="0 0 24 24" fill="none" xmlns="http://www.w3.org/2000/svg">
<path fill-rule="evenodd" clip-rule="evenodd" d="M15.6007 15.6006C18.2545 12.9468 18.2545 8.64416 15.6007 5.99035C12.9468 3.33655 8.64417 3.33655 5.99036 5.99035C3.33655 8.64416 3.33655 12.9468 5.99036 15.6006C8.64417 18.2544 12.9468 18.2544 15.6007 15.6006ZM14.2277 14.2278C16.1233 12.3322 16.1233 9.25884 14.2277 7.36326C12.3321 5.46768 9.25879 5.46768 7.3632 7.36326C5.46764 9.25884 5.46764 12.3322 7.3632 14.2278C9.25879 16.1233 12.3321 16.1233 14.2277 14.2278Z" fill="#60CBFF"/>
<path d="M13.9338 15.8813L15.3067 14.5084L20.3729 19.5746L19 20.9475L13.9338 15.8813Z" fill="#60CBFF"/>
</svg>
